# xmcd CD database file
#
# Track frame offsets:
#	150
#	16373
#	28970
#	41102
#	59428
#	76510
#	93853
#	111219
#	127645
#	138780
#	145339
#	159927
#	172841
#	185871
#	210750
#	225259
#	239027
#
# Disc length: 3327 seconds
#
# Revision: 0
# Processed by: cddbd v1.5.1PL2 Copyright (c) Steve Scherf et al.
# Submitted via: CDex 1.51
#
DISCID=d10cfd11
DTITLE=Majestic Jazz Band - olala (quelle histoire)
DYEAR=1999
DGENRE=Jazz
TTITLE0=Ain't she sweet
TTITLE1=Dinah
TTITLE2=Oriental man
TTITLE3=Sweet Sue
TTITLE4=Undecided
TTITLE5=Saint James Infirmary
TTITLE6=Promenade aux Champs Elysees
TTITLE7=Doctor Jazz
TTITLE8=Lady be good
TTITLE9=New Orleans Function
TTITLE10=FIve foot two
TTITLE11=Get out and get under the moon
TTITLE12=Hot lips
TTITLE13=Joseph
TTITLE14=Heckler's hop
TTITLE15=The mooche
TTITLE16=Les bananes
EXTD=YEAR: 1999
EXTT0=
EXTT1=
EXTT2=
EXTT3=
EXTT4=
EXTT5=
EXTT6=
EXTT7=
EXTT8=
EXTT9=
EXTT10=
EXTT11=
EXTT12=
EXTT13=
EXTT14=
EXTT15=
EXTT16=
PLAYORDER=
